<?xml version="1.0" encoding="UTF-8" standalone="no"?>
<!DOCTYPE svg PUBLIC "-//W3C//DTD SVG 1.1//EN"
 "http://www.w3.org/Graphics/SVG/1.1/DTD/svg11.dtd">
<!-- Generated by graphviz version 14.1.2 (20260124.0452)
 -->
<!-- Title: Workflow Pages: 1 -->
<svg width="504pt" height="534pt"
 viewBox="0.00 0.00 504.00 534.00" xmlns="http://www.w3.org/2000/svg" xmlns:xlink="http://www.w3.org/1999/xlink">
<g id="graph0" class="graph" transform="scale(1 1) rotate(0) translate(4 529.5)">
<title>Workflow</title>
<polygon fill="white" stroke="none" points="-4,4 -4,-529.5 500.12,-529.5 500.12,4 -4,4"/>
<!-- coordinator&#45;executor -->
<g id="node1" class="node">
<title>coordinator&#45;executor</title>
<polygon fill="lightgreen" stroke="black" points="401.38,-525.5 272.12,-525.5 272.12,-484.5 401.38,-484.5 401.38,-525.5"/>
<text xml:space="preserve" text-anchor="middle" x="336.75" y="-508.2" font-family="Times,serif" font-size="14.00">coordinator&#45;executor</text>
<text xml:space="preserve" text-anchor="middle" x="336.75" y="-491.7" font-family="Times,serif" font-size="14.00">(Start)</text>
</g>
<!-- certification&#45;info&#45;executor -->
<g id="node2" class="node">
<title>certification&#45;info&#45;executor</title>
<polygon fill="lightblue" stroke="black" points="243,-447.5 84.5,-447.5 84.5,-411.5 243,-411.5 243,-447.5"/>
<text xml:space="preserve" text-anchor="middle" x="163.75" y="-424.45" font-family="Times,serif" font-size="14.00">certification&#45;info&#45;executor</text>
</g>
<!-- coordinator&#45;executor&#45;&gt;certification&#45;info&#45;executor -->
<g id="edge1" class="edge">
<title>coordinator&#45;executor&#45;&gt;certification&#45;info&#45;executor</title>
<path fill="none" stroke="black" d="M289.93,-484.11C266.75,-474.26 238.7,-462.34 214.95,-452.25"/>
<polygon fill="black" stroke="black" points="205.83,-448.38 216.8,-448.15 209.31,-449.86 215.04,-452.29 215.04,-452.29 215.04,-452.29 209.31,-449.86 213.28,-456.43 205.83,-448.38"/>
</g>
<!-- learning&#45;path&#45;fetcher&#45;executor -->
<g id="node3" class="node">
<title>learning&#45;path&#45;fetcher&#45;executor</title>
<polygon fill="lightblue" stroke="black" points="341.25,-109 160.25,-109 160.25,-73 341.25,-73 341.25,-109"/>
<text xml:space="preserve" text-anchor="middle" x="250.75" y="-85.95" font-family="Times,serif" font-size="14.00">learning&#45;path&#45;fetcher&#45;executor</text>
</g>
<!-- coordinator&#45;executor&#45;&gt;learning&#45;path&#45;fetcher&#45;executor -->
<g id="edge2" class="edge">
<title>coordinator&#45;executor&#45;&gt;learning&#45;path&#45;fetcher&#45;executor</title>
<path fill="none" stroke="black" d="M347.5,-484.03C354.27,-469.58 361.75,-449.37 361.75,-430.5 361.75,-430.5 361.75,-430.5 361.75,-178.5 361.75,-149.15 337.3,-128.29 311.35,-114.42"/>
<polygon fill="black" stroke="black" points="302.47,-109.99 313.43,-110.43 305.85,-111.68 311.42,-114.46 311.42,-114.46 311.42,-114.46 305.85,-111.68 309.41,-118.48 302.47,-109.99"/>
</g>
<!-- practice&#45;questions&#45;executor -->
<g id="node4" class="node">
<title>practice&#45;questions&#45;executor</title>
<polygon fill="lightblue" stroke="black" points="333.38,-197.5 168.12,-197.5 168.12,-161.5 333.38,-161.5 333.38,-197.5"/>
<text xml:space="preserve" text-anchor="middle" x="250.75" y="-174.45" font-family="Times,serif" font-size="14.00">practice&#45;questions&#45;executor</text>
</g>
<!-- coordinator&#45;executor&#45;&gt;practice&#45;questions&#45;executor -->
<g id="edge3" class="edge">
<title>coordinator&#45;executor&#45;&gt;practice&#45;questions&#45;executor</title>
<path fill="none" stroke="black" d="M328.69,-484.08C323.51,-469.49 317.75,-449.08 317.75,-430.5 317.75,-430.5 317.75,-430.5 317.75,-251.5 317.75,-232.37 304.73,-216.31 290.17,-204.33"/>
<polygon fill="black" stroke="black" points="282.48,-198.49 293.16,-200.95 285.49,-200.78 290.44,-204.54 290.44,-204.54 290.44,-204.54 285.49,-200.78 287.72,-208.12 282.48,-198.49"/>
</g>
<!-- general&#45;executor -->
<g id="node5" class="node">
<title>general&#45;executor</title>
<polygon fill="lightblue" stroke="black" points="496.12,-447.5 389.38,-447.5 389.38,-411.5 496.12,-411.5 496.12,-447.5"/>
<text xml:space="preserve" text-anchor="middle" x="442.75" y="-424.45" font-family="Times,serif" font-size="14.00">general&#45;executor</text>
</g>
<!-- coordinator&#45;executor&#45;&gt;general&#45;executor -->
<g id="edge4" class="edge">
<title>coordinator&#45;executor&#45;&gt;general&#45;executor</title>
<path fill="none" stroke="black" d="M365.44,-484.11C378.81,-474.83 394.83,-463.73 408.81,-454.03"/>
<polygon fill="black" stroke="black" points="416.65,-448.6 411,-457.99 413.54,-450.75 408.43,-454.3 408.43,-454.3 408.43,-454.3 413.54,-450.75 405.87,-450.6 416.65,-448.6"/>
</g>
<!-- critic&#45;executor -->
<g id="node6" class="node">
<title>critic&#45;executor</title>
<polygon fill="lightblue" stroke="black" points="178.12,-359 83.38,-359 83.38,-323 178.12,-323 178.12,-359"/>
<text xml:space="preserve" text-anchor="middle" x="130.75" y="-335.95" font-family="Times,serif" font-size="14.00">critic&#45;executor</text>
</g>
<!-- certification&#45;info&#45;executor&#45;&gt;critic&#45;executor -->
<g id="edge5" class="edge">
<title>certification&#45;info&#45;executor&#45;&gt;critic&#45;executor</title>
<path fill="none" stroke="black" d="M153.26,-411.08C150.24,-405.58 147.12,-399.4 144.75,-393.5 141.78,-386.1 139.23,-377.87 137.15,-370.18"/>
<polygon fill="black" stroke="black" points="134.74,-360.68 141.56,-369.26 135.67,-364.34 137.19,-370.37 137.19,-370.37 137.19,-370.37 135.67,-364.34 132.83,-371.47 134.74,-360.68"/>
</g>
<!-- study&#45;plan&#45;generator&#45;executor -->
<g id="node7" class="node">
<title>study&#45;plan&#45;generator&#45;executor</title>
<polygon fill="lightblue" stroke="black" points="179.5,-36 0,-36 0,0 179.5,0 179.5,-36"/>
<text xml:space="preserve" text-anchor="middle" x="89.75" y="-12.95" font-family="Times,serif" font-size="14.00">study&#45;plan&#45;generator&#45;executor</text>
</g>
<!-- learning&#45;path&#45;fetcher&#45;executor&#45;&gt;study&#45;plan&#45;generator&#45;executor -->
<g id="edge6" class="edge">
<title>learning&#45;path&#45;fetcher&#45;executor&#45;&gt;study&#45;plan&#45;generator&#45;executor</title>
<path fill="none" stroke="black" d="M211.36,-72.63C189.63,-63.05 162.43,-51.05 139.27,-40.84"/>
<polygon fill="black" stroke="black" points="130.4,-36.93 141.37,-36.84 133.86,-38.45 139.55,-40.96 139.55,-40.96 139.55,-40.96 133.86,-38.45 137.74,-45.08 130.4,-36.93"/>
</g>
<!-- practice&#45;questions&#45;executor&#45;&gt;learning&#45;path&#45;fetcher&#45;executor -->
<g id="edge10" class="edge">
<title>practice&#45;questions&#45;executor&#45;&gt;learning&#45;path&#45;fetcher&#45;executor</title>
<path fill="none" stroke="black" stroke-dasharray="5,2" d="M250.75,-161.41C250.75,-149.76 250.75,-134.05 250.75,-120.52"/>
<polygon fill="black" stroke="black" points="250.75,-110.57 255.25,-120.57 250.75,-114.35 250.75,-120.57 250.75,-120.57 250.75,-120.57 250.75,-114.35 246.25,-120.57 250.75,-110.57"/>
<text xml:space="preserve" text-anchor="middle" x="281.12" y="-130.2" font-family="Times,serif" font-size="14.00">conditional</text>
</g>
<!-- critic&#45;executor&#45;&gt;certification&#45;info&#45;executor -->
<g id="edge11" class="edge">
<title>critic&#45;executor&#45;&gt;certification&#45;info&#45;executor</title>
<path fill="none" stroke="black" stroke-dasharray="5,2" d="M137.37,-359.35C141.93,-371.3 148.08,-387.42 153.3,-401.1"/>
<polygon fill="black" stroke="black" points="156.8,-410.27 149.03,-402.53 155.45,-406.74 153.23,-400.93 153.23,-400.93 153.23,-400.93 155.45,-406.74 157.44,-399.32 156.8,-410.27"/>
<text xml:space="preserve" text-anchor="middle" x="180.58" y="-380.2" font-family="Times,serif" font-size="14.00">conditional</text>
</g>
<!-- critic&#45;executor&#45;&gt;study&#45;plan&#45;generator&#45;executor -->
<g id="edge12" class="edge">
<title>critic&#45;executor&#45;&gt;study&#45;plan&#45;generator&#45;executor</title>
<path fill="none" stroke="black" stroke-dasharray="5,2" d="M116.87,-322.58C104.97,-305.88 89.75,-279.43 89.75,-253.5 89.75,-253.5 89.75,-253.5 89.75,-90 89.75,-75.94 89.75,-60.31 89.75,-47.3"/>
<polygon fill="black" stroke="black" points="89.75,-37.43 94.25,-47.43 89.75,-41.22 89.75,-47.43 89.75,-47.43 89.75,-47.43 89.75,-41.22 85.25,-47.43 89.75,-37.43"/>
<text xml:space="preserve" text-anchor="middle" x="120.12" y="-174.45" font-family="Times,serif" font-size="14.00">conditional</text>
</g>
<!-- post&#45;study&#45;plan&#45;executor -->
<g id="node8" class="node">
<title>post&#45;study&#45;plan&#45;executor</title>
<polygon fill="lightblue" stroke="black" points="276.25,-270.5 125.25,-270.5 125.25,-234.5 276.25,-234.5 276.25,-270.5"/>
<text xml:space="preserve" text-anchor="middle" x="200.75" y="-247.45" font-family="Times,serif" font-size="14.00">post&#45;study&#45;plan&#45;executor</text>
</g>
<!-- critic&#45;executor&#45;&gt;post&#45;study&#45;plan&#45;executor -->
<g id="edge8" class="edge">
<title>critic&#45;executor&#45;&gt;post&#45;study&#45;plan&#45;executor</title>
<path fill="none" stroke="black" stroke-dasharray="5,2" d="M144.58,-322.91C154.68,-310.43 168.54,-293.3 179.96,-279.18"/>
<polygon fill="black" stroke="black" points="185.94,-271.8 183.15,-282.4 183.56,-274.74 179.65,-279.57 179.65,-279.57 179.65,-279.57 183.56,-274.74 176.15,-276.74 185.94,-271.8"/>
<text xml:space="preserve" text-anchor="middle" x="202.39" y="-291.7" font-family="Times,serif" font-size="14.00">conditional</text>
</g>
<!-- study&#45;plan&#45;generator&#45;executor&#45;&gt;critic&#45;executor -->
<g id="edge7" class="edge">
<title>study&#45;plan&#45;generator&#45;executor&#45;&gt;critic&#45;executor</title>
<path fill="none" stroke="black" d="M70.51,-36.29C57.9,-49.58 43.75,-69.14 43.75,-90 43.75,-253.5 43.75,-253.5 43.75,-253.5 43.75,-280.43 64.97,-301.86 86.45,-316.65"/>
<polygon fill="black" stroke="black" points="94.59,-321.92 83.75,-320.26 91.42,-319.86 86.2,-316.49 86.2,-316.49 86.2,-316.49 91.42,-319.86 88.64,-312.71 94.59,-321.92"/>
</g>
<!-- post&#45;study&#45;plan&#45;executor&#45;&gt;practice&#45;questions&#45;executor -->
<g id="edge9" class="edge">
<title>post&#45;study&#45;plan&#45;executor&#45;&gt;practice&#45;questions&#45;executor</title>
<path fill="none" stroke="black" d="M212.85,-234.31C218.69,-226.03 225.81,-215.91 232.3,-206.69"/>
<polygon fill="black" stroke="black" points="238.06,-198.53 235.98,-209.29 235.88,-201.62 232.3,-206.7 232.3,-206.7 232.3,-206.7 235.88,-201.62 228.62,-204.11 238.06,-198.53"/>
</g>
</g>
</svg>
