<?xml version="1.0" encoding="UTF-8" standalone="no"?>
<!DOCTYPE svg PUBLIC "-//W3C//DTD SVG 1.1//EN"
 "http://www.w3.org/Graphics/SVG/1.1/DTD/svg11.dtd">
<!-- Generated by graphviz version 14.1.2 (20260124.0452)
 -->
<!-- Title: Workflow Pages: 1 -->
<svg width="441pt" height="534pt"
 viewBox="0.00 0.00 441.00 534.00" xmlns="http://www.w3.org/2000/svg" xmlns:xlink="http://www.w3.org/1999/xlink">
<g id="graph0" class="graph" transform="scale(1 1) rotate(0) translate(4 529.5)">
<title>Workflow</title>
<polygon fill="white" stroke="none" points="-4,4 -4,-529.5 437,-529.5 437,4 -4,4"/>
<!-- coordinator&#45;router -->
<g id="node1" class="node">
<title>coordinator&#45;router</title>
<polygon fill="lightgreen" stroke="black" points="343.12,-525.5 228.12,-525.5 228.12,-484.5 343.12,-484.5 343.12,-525.5"/>
<text xml:space="preserve" text-anchor="middle" x="285.62" y="-508.2" font-family="Times,serif" font-size="14.00">coordinator&#45;router</text>
<text xml:space="preserve" text-anchor="middle" x="285.62" y="-491.7" font-family="Times,serif" font-size="14.00">(Start)</text>
</g>
<!-- cert&#45;info&#45;handler -->
<g id="node2" class="node">
<title>cert&#45;info&#45;handler</title>
<polygon fill="lightblue" stroke="black" points="184.38,-447.5 76.88,-447.5 76.88,-411.5 184.38,-411.5 184.38,-447.5"/>
<text xml:space="preserve" text-anchor="middle" x="130.62" y="-424.45" font-family="Times,serif" font-size="14.00">cert&#45;info&#45;handler</text>
</g>
<!-- coordinator&#45;router&#45;&gt;cert&#45;info&#45;handler -->
<g id="edge1" class="edge">
<title>coordinator&#45;router&#45;&gt;cert&#45;info&#45;handler</title>
<path fill="none" stroke="black" d="M243.68,-484.11C223.18,-474.39 198.45,-462.66 177.36,-452.66"/>
<polygon fill="black" stroke="black" points="168.43,-448.43 179.39,-448.64 171.84,-450.05 177.46,-452.71 177.46,-452.71 177.46,-452.71 171.84,-450.05 175.53,-456.78 168.43,-448.43"/>
</g>
<!-- learning&#45;path&#45;fetcher -->
<g id="node3" class="node">
<title>learning&#45;path&#45;fetcher</title>
<polygon fill="lightblue" stroke="black" points="275.62,-109 145.62,-109 145.62,-73 275.62,-73 275.62,-109"/>
<text xml:space="preserve" text-anchor="middle" x="210.62" y="-85.95" font-family="Times,serif" font-size="14.00">learning&#45;path&#45;fetcher</text>
</g>
<!-- coordinator&#45;router&#45;&gt;learning&#45;path&#45;fetcher -->
<g id="edge2" class="edge">
<title>coordinator&#45;router&#45;&gt;learning&#45;path&#45;fetcher</title>
<path fill="none" stroke="black" d="M293.68,-484.08C298.86,-469.49 304.62,-449.08 304.62,-430.5 304.62,-430.5 304.62,-430.5 304.62,-178.5 304.62,-150.82 282.28,-129.57 259.38,-115.06"/>
<polygon fill="black" stroke="black" points="250.99,-110.07 261.89,-111.31 254.24,-112 259.59,-115.18 259.59,-115.18 259.59,-115.18 254.24,-112 257.29,-119.05 250.99,-110.07"/>
</g>
<!-- practice&#45;handler -->
<g id="node4" class="node">
<title>practice&#45;handler</title>
<polygon fill="lightblue" stroke="black" points="262.5,-197.5 158.75,-197.5 158.75,-161.5 262.5,-161.5 262.5,-197.5"/>
<text xml:space="preserve" text-anchor="middle" x="210.62" y="-174.45" font-family="Times,serif" font-size="14.00">practice&#45;handler</text>
</g>
<!-- coordinator&#45;router&#45;&gt;practice&#45;handler -->
<g id="edge3" class="edge">
<title>coordinator&#45;router&#45;&gt;practice&#45;handler</title>
<path fill="none" stroke="black" d="M277.57,-484.08C272.39,-469.49 266.62,-449.08 266.62,-430.5 266.62,-430.5 266.62,-430.5 266.62,-251.5 266.62,-233.6 255.52,-217.56 243.19,-205.27"/>
<polygon fill="black" stroke="black" points="235.92,-198.59 246.33,-202.04 238.7,-201.15 243.28,-205.36 243.28,-205.36 243.28,-205.36 238.7,-201.15 240.24,-208.67 235.92,-198.59"/>
</g>
<!-- general&#45;handler -->
<g id="node5" class="node">
<title>general&#45;handler</title>
<polygon fill="lightblue" stroke="black" points="433,-447.5 332.25,-447.5 332.25,-411.5 433,-411.5 433,-447.5"/>
<text xml:space="preserve" text-anchor="middle" x="382.62" y="-424.45" font-family="Times,serif" font-size="14.00">general&#45;handler</text>
</g>
<!-- coordinator&#45;router&#45;&gt;general&#45;handler -->
<g id="edge4" class="edge">
<title>coordinator&#45;router&#45;&gt;general&#45;handler</title>
<path fill="none" stroke="black" d="M311.87,-484.11C323.88,-475.01 338.22,-464.15 350.83,-454.59"/>
<polygon fill="black" stroke="black" points="358.69,-448.64 353.43,-458.27 355.67,-450.92 350.72,-454.68 350.72,-454.68 350.72,-454.68 355.67,-450.92 348,-451.09 358.69,-448.64"/>
</g>
<!-- critic&#45;executor -->
<g id="node6" class="node">
<title>critic&#45;executor</title>
<polygon fill="lightblue" stroke="black" points="145,-359 50.25,-359 50.25,-323 145,-323 145,-359"/>
<text xml:space="preserve" text-anchor="middle" x="97.62" y="-335.95" font-family="Times,serif" font-size="14.00">critic&#45;executor</text>
</g>
<!-- cert&#45;info&#45;handler&#45;&gt;critic&#45;executor -->
<g id="edge5" class="edge">
<title>cert&#45;info&#45;handler&#45;&gt;critic&#45;executor</title>
<path fill="none" stroke="black" d="M120.14,-411.08C117.11,-405.58 113.99,-399.4 111.62,-393.5 108.66,-386.1 106.11,-377.87 104.02,-370.18"/>
<polygon fill="black" stroke="black" points="101.61,-360.68 108.43,-369.26 102.54,-364.34 104.07,-370.37 104.07,-370.37 104.07,-370.37 102.54,-364.34 99.71,-371.47 101.61,-360.68"/>
</g>
<!-- study&#45;plan&#45;scheduler -->
<g id="node7" class="node">
<title>study&#45;plan&#45;scheduler</title>
<polygon fill="lightblue" stroke="black" points="129.25,-36 0,-36 0,0 129.25,0 129.25,-36"/>
<text xml:space="preserve" text-anchor="middle" x="64.62" y="-12.95" font-family="Times,serif" font-size="14.00">study&#45;plan&#45;scheduler</text>
</g>
<!-- learning&#45;path&#45;fetcher&#45;&gt;study&#45;plan&#45;scheduler -->
<g id="edge6" class="edge">
<title>learning&#45;path&#45;fetcher&#45;&gt;study&#45;plan&#45;scheduler</title>
<path fill="none" stroke="black" d="M174.91,-72.63C155.47,-63.18 131.2,-51.38 110.38,-41.25"/>
<polygon fill="black" stroke="black" points="101.57,-36.97 112.53,-37.29 104.97,-38.62 110.57,-41.34 110.57,-41.34 110.57,-41.34 104.97,-38.62 108.6,-45.39 101.57,-36.97"/>
</g>
<!-- practice&#45;handler&#45;&gt;learning&#45;path&#45;fetcher -->
<g id="edge10" class="edge">
<title>practice&#45;handler&#45;&gt;learning&#45;path&#45;fetcher</title>
<path fill="none" stroke="black" stroke-dasharray="5,2" d="M210.62,-161.41C210.62,-149.76 210.62,-134.05 210.62,-120.52"/>
<polygon fill="black" stroke="black" points="210.63,-110.57 215.13,-120.57 210.63,-114.35 210.63,-120.57 210.63,-120.57 210.63,-120.57 210.63,-114.35 206.13,-120.57 210.63,-110.57"/>
<text xml:space="preserve" text-anchor="middle" x="241" y="-130.2" font-family="Times,serif" font-size="14.00">conditional</text>
</g>
<!-- critic&#45;executor&#45;&gt;cert&#45;info&#45;handler -->
<g id="edge11" class="edge">
<title>critic&#45;executor&#45;&gt;cert&#45;info&#45;handler</title>
<path fill="none" stroke="black" stroke-dasharray="5,2" d="M104.24,-359.35C108.8,-371.3 114.95,-387.42 120.17,-401.1"/>
<polygon fill="black" stroke="black" points="123.67,-410.27 115.9,-402.53 122.32,-406.74 120.11,-400.93 120.11,-400.93 120.11,-400.93 122.32,-406.74 124.31,-399.32 123.67,-410.27"/>
<text xml:space="preserve" text-anchor="middle" x="147.46" y="-380.2" font-family="Times,serif" font-size="14.00">conditional</text>
</g>
<!-- critic&#45;executor&#45;&gt;study&#45;plan&#45;scheduler -->
<g id="edge12" class="edge">
<title>critic&#45;executor&#45;&gt;study&#45;plan&#45;scheduler</title>
<path fill="none" stroke="black" stroke-dasharray="5,2" d="M86.64,-322.52C77.04,-305.55 64.62,-278.73 64.62,-253.5 64.62,-253.5 64.62,-253.5 64.62,-90 64.62,-75.94 64.62,-60.31 64.62,-47.3"/>
<polygon fill="black" stroke="black" points="64.63,-37.43 69.13,-47.43 64.63,-41.22 64.63,-47.43 64.63,-47.43 64.63,-47.43 64.63,-41.22 60.13,-47.43 64.63,-37.43"/>
<text xml:space="preserve" text-anchor="middle" x="95" y="-174.45" font-family="Times,serif" font-size="14.00">conditional</text>
</g>
<!-- post&#45;study&#45;plan&#45;handler -->
<g id="node8" class="node">
<title>post&#45;study&#45;plan&#45;handler</title>
<polygon fill="lightblue" stroke="black" points="238.12,-270.5 93.12,-270.5 93.12,-234.5 238.12,-234.5 238.12,-270.5"/>
<text xml:space="preserve" text-anchor="middle" x="165.62" y="-247.45" font-family="Times,serif" font-size="14.00">post&#45;study&#45;plan&#45;handler</text>
</g>
<!-- critic&#45;executor&#45;&gt;post&#45;study&#45;plan&#45;handler -->
<g id="edge8" class="edge">
<title>critic&#45;executor&#45;&gt;post&#45;study&#45;plan&#45;handler</title>
<path fill="none" stroke="black" stroke-dasharray="5,2" d="M111.06,-322.91C120.78,-310.55 134.08,-293.63 145.12,-279.58"/>
<polygon fill="black" stroke="black" points="151.23,-271.81 148.59,-282.45 148.9,-274.78 145.05,-279.67 145.05,-279.67 145.05,-279.67 148.9,-274.78 141.51,-276.89 151.23,-271.81"/>
<text xml:space="preserve" text-anchor="middle" x="168.09" y="-291.7" font-family="Times,serif" font-size="14.00">conditional</text>
</g>
<!-- study&#45;plan&#45;scheduler&#45;&gt;critic&#45;executor -->
<g id="edge7" class="edge">
<title>study&#45;plan&#45;scheduler&#45;&gt;critic&#45;executor</title>
<path fill="none" stroke="black" d="M45.38,-36.29C32.78,-49.58 18.62,-69.14 18.62,-90 18.62,-253.5 18.62,-253.5 18.62,-253.5 18.62,-279.43 38.21,-300.98 57.88,-316.09"/>
<polygon fill="black" stroke="black" points="65.87,-321.86 55.13,-319.65 62.8,-319.64 57.76,-316 57.76,-316 57.76,-316 62.8,-319.64 60.4,-312.35 65.87,-321.86"/>
</g>
<!-- post&#45;study&#45;plan&#45;handler&#45;&gt;practice&#45;handler -->
<g id="edge9" class="edge">
<title>post&#45;study&#45;plan&#45;handler&#45;&gt;practice&#45;handler</title>
<path fill="none" stroke="black" d="M176.52,-234.31C181.71,-226.12 188.05,-216.12 193.84,-206.98"/>
<polygon fill="black" stroke="black" points="199.18,-198.56 197.63,-209.41 197.16,-201.75 193.83,-207 193.83,-207 193.83,-207 197.16,-201.75 190.03,-204.6 199.18,-198.56"/>
</g>
</g>
</svg>
