<?xml version="1.0" encoding="UTF-8" standalone="no"?>
<!DOCTYPE svg PUBLIC "-//W3C//DTD SVG 1.1//EN"
 "http://www.w3.org/Graphics/SVG/1.1/DTD/svg11.dtd">
<!-- Generated by graphviz version 2.43.0 (0)
 -->
<!-- Title: Workflow Pages: 1 -->
<svg width="631pt" height="599pt"
 viewBox="0.00 0.00 631.00 599.00" xmlns="http://www.w3.org/2000/svg" xmlns:xlink="http://www.w3.org/1999/xlink">
<g id="graph0" class="graph" transform="scale(1 1) rotate(0) translate(4 595)">
<title>Workflow</title>
<polygon fill="white" stroke="transparent" points="-4,4 -4,-595 627,-595 627,4 -4,4"/>
<!-- input&#45;guard&#45;executor -->
<g id="node1" class="node">
<title>input&#45;guard&#45;executor</title>
<polygon fill="lightgreen" stroke="black" points="509,-591 342,-591 342,-553 509,-553 509,-591"/>
<text text-anchor="middle" x="425.5" y="-575.8" font-family="Times,serif" font-size="14.00">input&#45;guard&#45;executor</text>
<text text-anchor="middle" x="425.5" y="-560.8" font-family="Times,serif" font-size="14.00">(Start)</text>
</g>
<!-- coordinator&#45;executor -->
<g id="node2" class="node">
<title>coordinator&#45;executor</title>
<polygon fill="lightblue" stroke="black" points="508.5,-516 342.5,-516 342.5,-480 508.5,-480 508.5,-516"/>
<text text-anchor="middle" x="425.5" y="-494.3" font-family="Times,serif" font-size="14.00">coordinator&#45;executor</text>
</g>
<!-- input&#45;guard&#45;executor&#45;&gt;coordinator&#45;executor -->
<g id="edge1" class="edge">
<title>input&#45;guard&#45;executor&#45;&gt;coordinator&#45;executor</title>
<path fill="none" stroke="black" d="M425.5,-552.83C425.5,-544.89 425.5,-535.41 425.5,-526.63"/>
<polygon fill="black" stroke="black" points="425.5,-516.42 430,-526.42 425.5,-521.42 425.5,-526.42 425.5,-526.42 425.5,-526.42 425.5,-521.42 421,-526.42 425.5,-516.42 425.5,-516.42"/>
</g>
<!-- certification&#45;info&#45;executor -->
<g id="node3" class="node">
<title>certification&#45;info&#45;executor</title>
<polygon fill="lightblue" stroke="black" points="302.5,-443 102.5,-443 102.5,-407 302.5,-407 302.5,-443"/>
<text text-anchor="middle" x="202.5" y="-421.3" font-family="Times,serif" font-size="14.00">certification&#45;info&#45;executor</text>
</g>
<!-- coordinator&#45;executor&#45;&gt;certification&#45;info&#45;executor -->
<g id="edge2" class="edge">
<title>coordinator&#45;executor&#45;&gt;certification&#45;info&#45;executor</title>
<path fill="none" stroke="black" d="M372.09,-479.99C340.19,-469.84 299.49,-456.88 265.96,-446.2"/>
<polygon fill="black" stroke="black" points="256.25,-443.11 267.15,-441.86 261.02,-444.63 265.78,-446.15 265.78,-446.15 265.78,-446.15 261.02,-444.63 264.41,-450.44 256.25,-443.11 256.25,-443.11"/>
</g>
<!-- learning&#45;path&#45;fetcher&#45;executor -->
<g id="node4" class="node">
<title>learning&#45;path&#45;fetcher&#45;executor</title>
<polygon fill="lightblue" stroke="black" points="439,-109 204,-109 204,-73 439,-73 439,-109"/>
<text text-anchor="middle" x="321.5" y="-87.3" font-family="Times,serif" font-size="14.00">learning&#45;path&#45;fetcher&#45;executor</text>
</g>
<!-- coordinator&#45;executor&#45;&gt;learning&#45;path&#45;fetcher&#45;executor -->
<g id="edge3" class="edge">
<title>coordinator&#45;executor&#45;&gt;learning&#45;path&#45;fetcher&#45;executor</title>
<path fill="none" stroke="black" d="M438.15,-479.87C447.09,-466.06 457.5,-445.74 457.5,-426 457.5,-426 457.5,-426 457.5,-177 457.5,-145.97 431.73,-125.85 402.62,-113.02"/>
<polygon fill="black" stroke="black" points="393.08,-109.11 404.04,-108.74 397.71,-111 402.34,-112.9 402.34,-112.9 402.34,-112.9 397.71,-111 400.63,-117.06 393.08,-109.11 393.08,-109.11"/>
</g>
<!-- practice&#45;questions&#45;executor -->
<g id="node5" class="node">
<title>practice&#45;questions&#45;executor</title>
<polygon fill="lightblue" stroke="black" points="429,-196 214,-196 214,-160 429,-160 429,-196"/>
<text text-anchor="middle" x="321.5" y="-174.3" font-family="Times,serif" font-size="14.00">practice&#45;questions&#45;executor</text>
</g>
<!-- coordinator&#45;executor&#45;&gt;practice&#45;questions&#45;executor -->
<g id="edge4" class="edge">
<title>coordinator&#45;executor&#45;&gt;practice&#45;questions&#45;executor</title>
<path fill="none" stroke="black" d="M418.21,-479.84C412.85,-465.66 406.5,-444.88 406.5,-426 406.5,-426 406.5,-426 406.5,-250 406.5,-228.85 390.81,-212.77 372.91,-201.3"/>
<polygon fill="black" stroke="black" points="364,-196.04 374.9,-197.25 368.31,-198.58 372.61,-201.13 372.61,-201.13 372.61,-201.13 368.31,-198.58 370.32,-205 364,-196.04 364,-196.04"/>
</g>
<!-- general&#45;executor -->
<g id="node6" class="node">
<title>general&#45;executor</title>
<polygon fill="lightblue" stroke="black" points="623,-443 486,-443 486,-407 623,-407 623,-443"/>
<text text-anchor="middle" x="554.5" y="-421.3" font-family="Times,serif" font-size="14.00">general&#45;executor</text>
</g>
<!-- coordinator&#45;executor&#45;&gt;general&#45;executor -->
<g id="edge5" class="edge">
<title>coordinator&#45;executor&#45;&gt;general&#45;executor</title>
<path fill="none" stroke="black" d="M456.4,-479.99C473.82,-470.4 495.78,-458.32 514.51,-448.01"/>
<polygon fill="black" stroke="black" points="523.41,-443.11 516.82,-451.88 519.03,-445.52 514.65,-447.94 514.65,-447.94 514.65,-447.94 519.03,-445.52 512.48,-443.99 523.41,-443.11 523.41,-443.11"/>
</g>
<!-- critic&#45;executor -->
<g id="node7" class="node">
<title>critic&#45;executor</title>
<polygon fill="lightblue" stroke="black" points="229.5,-356 109.5,-356 109.5,-320 229.5,-320 229.5,-356"/>
<text text-anchor="middle" x="169.5" y="-334.3" font-family="Times,serif" font-size="14.00">critic&#45;executor</text>
</g>
<!-- certification&#45;info&#45;executor&#45;&gt;critic&#45;executor -->
<g id="edge6" class="edge">
<title>certification&#45;info&#45;executor&#45;&gt;critic&#45;executor</title>
<path fill="none" stroke="black" d="M192.24,-406.93C189.15,-401.34 185.94,-395.02 183.5,-389 180.57,-381.76 178.01,-373.7 175.92,-366.2"/>
<polygon fill="black" stroke="black" points="173.36,-356.44 180.25,-364.97 174.63,-361.28 175.9,-366.12 175.9,-366.12 175.9,-366.12 174.63,-361.28 171.55,-367.26 173.36,-356.44 173.36,-356.44"/>
</g>
<!-- study&#45;plan&#45;generator&#45;executor -->
<g id="node8" class="node">
<title>study&#45;plan&#45;generator&#45;executor</title>
<polygon fill="lightblue" stroke="black" points="233,-36 0,-36 0,0 233,0 233,-36"/>
<text text-anchor="middle" x="116.5" y="-14.3" font-family="Times,serif" font-size="14.00">study&#45;plan&#45;generator&#45;executor</text>
</g>
<!-- learning&#45;path&#45;fetcher&#45;executor&#45;&gt;study&#45;plan&#45;generator&#45;executor -->
<g id="edge7" class="edge">
<title>learning&#45;path&#45;fetcher&#45;executor&#45;&gt;study&#45;plan&#45;generator&#45;executor</title>
<path fill="none" stroke="black" d="M272.4,-72.99C243.32,-62.92 206.3,-50.1 175.63,-39.48"/>
<polygon fill="black" stroke="black" points="165.91,-36.11 176.83,-35.13 170.64,-37.75 175.36,-39.39 175.36,-39.39 175.36,-39.39 170.64,-37.75 173.89,-43.64 165.91,-36.11 165.91,-36.11"/>
</g>
<!-- practice&#45;questions&#45;executor&#45;&gt;learning&#45;path&#45;fetcher&#45;executor -->
<g id="edge11" class="edge">
<title>practice&#45;questions&#45;executor&#45;&gt;learning&#45;path&#45;fetcher&#45;executor</title>
<path fill="none" stroke="black" stroke-dasharray="5,2" d="M321.5,-159.8C321.5,-148.16 321.5,-132.55 321.5,-119.24"/>
<polygon fill="black" stroke="black" points="321.5,-109.18 326,-119.18 321.5,-114.18 321.5,-119.18 321.5,-119.18 321.5,-119.18 321.5,-114.18 317,-119.18 321.5,-109.18 321.5,-109.18"/>
<text text-anchor="middle" x="361" y="-130.8" font-family="Times,serif" font-size="14.00">conditional</text>
</g>
<!-- critic&#45;executor&#45;&gt;certification&#45;info&#45;executor -->
<g id="edge12" class="edge">
<title>critic&#45;executor&#45;&gt;certification&#45;info&#45;executor</title>
<path fill="none" stroke="black" stroke-dasharray="5,2" d="M176.17,-356.18C180.73,-367.92 186.87,-383.73 192.07,-397.13"/>
<polygon fill="black" stroke="black" points="195.82,-406.8 188.01,-399.11 194.01,-402.14 192.2,-397.48 192.2,-397.48 192.2,-397.48 194.01,-402.14 196.4,-395.85 195.82,-406.8 195.82,-406.8"/>
<text text-anchor="middle" x="228" y="-377.8" font-family="Times,serif" font-size="14.00">conditional</text>
</g>
<!-- critic&#45;executor&#45;&gt;study&#45;plan&#45;generator&#45;executor -->
<g id="edge13" class="edge">
<title>critic&#45;executor&#45;&gt;study&#45;plan&#45;generator&#45;executor</title>
<path fill="none" stroke="black" stroke-dasharray="5,2" d="M150.66,-319.71C135.43,-303.77 116.5,-278.61 116.5,-252 116.5,-252 116.5,-252 116.5,-90 116.5,-75.65 116.5,-59.67 116.5,-46.51"/>
<polygon fill="black" stroke="black" points="116.5,-36.22 121,-46.22 116.5,-41.22 116.5,-46.22 116.5,-46.22 116.5,-46.22 116.5,-41.22 112,-46.22 116.5,-36.22 116.5,-36.22"/>
<text text-anchor="middle" x="156" y="-174.3" font-family="Times,serif" font-size="14.00">conditional</text>
</g>
<!-- post&#45;study&#45;plan&#45;executor -->
<g id="node9" class="node">
<title>post&#45;study&#45;plan&#45;executor</title>
<polygon fill="lightblue" stroke="black" points="352.5,-269 158.5,-269 158.5,-233 352.5,-233 352.5,-269"/>
<text text-anchor="middle" x="255.5" y="-247.3" font-family="Times,serif" font-size="14.00">post&#45;study&#45;plan&#45;executor</text>
</g>
<!-- critic&#45;executor&#45;&gt;post&#45;study&#45;plan&#45;executor -->
<g id="edge9" class="edge">
<title>critic&#45;executor&#45;&gt;post&#45;study&#45;plan&#45;executor</title>
<path fill="none" stroke="black" stroke-dasharray="5,2" d="M186.9,-319.8C199.49,-307.36 216.68,-290.36 230.71,-276.5"/>
<polygon fill="black" stroke="black" points="238.12,-269.18 234.17,-279.41 234.57,-272.69 231.01,-276.21 231.01,-276.21 231.01,-276.21 234.57,-272.69 227.85,-273 238.12,-269.18 238.12,-269.18"/>
<text text-anchor="middle" x="258" y="-290.8" font-family="Times,serif" font-size="14.00">conditional</text>
</g>
<!-- study&#45;plan&#45;generator&#45;executor&#45;&gt;critic&#45;executor -->
<g id="edge8" class="edge">
<title>study&#45;plan&#45;generator&#45;executor&#45;&gt;critic&#45;executor</title>
<path fill="none" stroke="black" d="M97.52,-36.01C84.85,-49.3 70.5,-69 70.5,-90 70.5,-252 70.5,-252 70.5,-252 70.5,-280.25 93.99,-301.14 118.08,-315.15"/>
<polygon fill="black" stroke="black" points="126.94,-319.99 116.01,-319.14 122.55,-317.59 118.17,-315.19 118.17,-315.19 118.17,-315.19 122.55,-317.59 120.33,-311.25 126.94,-319.99 126.94,-319.99"/>
</g>
<!-- post&#45;study&#45;plan&#45;executor&#45;&gt;practice&#45;questions&#45;executor -->
<g id="edge10" class="edge">
<title>post&#45;study&#45;plan&#45;executor&#45;&gt;practice&#45;questions&#45;executor</title>
<path fill="none" stroke="black" d="M271.48,-232.81C279.66,-224 289.78,-213.13 298.76,-203.46"/>
<polygon fill="black" stroke="black" points="305.67,-196.03 302.16,-206.42 302.27,-199.69 298.86,-203.35 298.86,-203.35 298.86,-203.35 302.27,-199.69 295.57,-200.29 305.67,-196.03 305.67,-196.03"/>
</g>
</g>
</svg>
